<svg xmlns="http://www.w3.org/2000/svg" style="display: none;">

    <symbol id="icon-bug01" viewBox="0 0 512 512">
      <path d="m461 197c-5-17-12-33-21-48 5-9 8-19 8-30 0-33-26-60-59-60-12 0-23 3-32 9-30-16-65-26-102-26-36 0-71 10-101 26-9-6-19-9-31-9-33 0-59 27-59 60 0 10 3 20 7 29-9 15-16 32-21 49-28 5-50 29-50 59 0 30 22 54 50 59 5 18 13 35 22 51-5 9-8 19-8 30 0 33 26 60 59 60 13 0 24-4 34-10 29 15 63 24 98 24 36 0 70-9 100-25 9 7 21 11 34 11 33 0 59-27 59-60 0-11-3-22-9-31 10-16 17-32 22-50 29-4 51-29 51-59 0-30-22-55-51-59z m-130 216c0 0 0 0 0 0 0 0 0 0 0 0-3 1-5 2-8 3-1 1-1 1-2 1-2 1-4 2-7 3-1 0-2 0-2 1-2 0-4 1-6 2-2 0-3 0-4 0-2 1-3 1-5 2-2 0-3 0-4 1-2 0-4 1-6 1-1 0-2 0-3 1-2 0-4 0-6 0-1 1-2 1-3 1-3 0-5 0-7 0-1 0-2 1-3 1-3 0-6 0-10 0-3 0-6 0-9 0-1 0-2-1-3-1-2 0-4 0-6 0-2 0-3 0-4-1-2 0-4 0-6 0-1-1-2-1-3-1-2 0-4-1-6-1-1 0-2-1-3-1-2 0-4-1-6-1-1-1-2-1-3-1-2-1-4-2-6-2-1-1-2-1-3-1-2-1-4-2-6-3-1 0-2 0-2 0-42-18-76-51-93-93 0 0 0 0 0 0-2-2-3-5-3-7-1-1-1-1-1-1-7-19-10-39-10-60 0-19 3-38 9-55 0-2 1-3 1-4 1-3 2-5 3-8 0 0 0 0 0 0 16-39 47-71 85-90l0 0c3-1 5-2 8-3 1-1 1-1 2-1 2-1 4-2 7-3 1 0 2 0 2-1 2 0 4-1 7-2 1 0 2 0 3 0 2-1 3-1 5-2 2 0 3 0 4-1 2 0 4-1 6-1 1 0 2 0 3-1 2 0 4 0 6 0 1-1 2-1 3-1 3 0 5 0 7 0 1 0 2-1 3-1 3 0 6 0 9 0 4 0 7 0 10 0 1 0 2 1 3 1 2 0 5 0 7 0 1 0 2 0 3 1 2 0 4 0 6 1 1 0 2 0 3 0 3 0 5 1 7 1 1 1 2 1 3 1 2 1 4 1 7 2 0 0 1 0 2 0 2 1 5 2 8 3 0 0 0 0 0 0 41 15 75 45 95 83 0 0 0 0 0 0 3 5 5 9 7 14 0 0 0 1 0 1 1 2 2 5 3 7 0 0 0 0 0 1 7 18 10 37 10 58 0 69-40 128-98 157z"/>
    </symbol>

    <symbol id="icon-bug02" viewBox="0 0 512 512">
      <path d="m512 256c0-30-22-55-51-59-5-17-12-33-21-48 5-9 8-19 8-30 0-33-26-60-59-60-12 0-23 3-32 9-30-16-65-26-102-26-36 0-71 10-101 26-9-6-19-9-31-9-33 0-59 27-59 60 0 10 2 20 7 29-9 15-16 32-21 49-28 5-50 29-50 59 0 30 22 54 50 59 5 18 13 35 22 51-5 9-8 19-8 30 0 33 26 60 59 60 13 0 24-4 34-10 29 15 63 24 98 24 36 0 70-9 100-25 9 7 21 11 34 11 33 0 59-27 59-60 0-11-3-22-9-31 9-16 17-32 22-50 29-4 51-29 51-59z m-331 157c1-5 2-11 2-17 0-33-27-59-60-59-7 0-13 1-20 3-5-10-10-21-14-32 18-11 30-30 30-52 0-22-12-41-30-52 4-10 8-20 13-30 7 3 14 4 21 4 33 0 60-26 60-59 0-7-1-13-3-20 23-11 48-17 75-17 28 0 54 7 77 18-2 6-3 12-3 19 0 33 27 59 60 59 7 0 14-1 20-3 5 9 9 19 13 30-18 10-29 29-29 51 0 22 11 41 29 51-4 12-8 23-14 33-6-2-13-3-19-3-33 0-60 26-60 59 0 6 1 11 2 17-23 11-48 17-76 17-26 0-52-6-74-17z"/>
    </symbol>

    <symbol id="icon-bug03" viewBox="0 0 512 512">
      <path d="m461 197c-5-17-12-33-21-48 5-9 8-19 8-30 0-33-26-60-59-60-12 0-23 3-32 9-30-16-65-26-102-26-36 0-71 10-101 26-9-6-19-9-31-9-33 0-59 27-59 60 0 10 3 20 7 29-9 15-16 32-21 49-28 5-50 29-50 59 0 30 22 54 50 59 5 18 13 35 22 51-5 9-8 19-8 30 0 33 26 60 59 60 13 0 24-4 34-10 29 15 63 24 98 24 36 0 70-9 100-25 9 7 21 11 34 11 33 0 59-27 59-60 0-11-3-22-9-31 9-16 17-32 22-50 29-4 51-29 51-59 0-30-22-55-51-59z"/>
    </symbol>

    <symbol id="icon-bug04" viewBox="0 0 512 512">
      <path d="m252 256c0 67-46 123-108 138 30 25 69 40 112 40 43 0 82-15 112-40-62-15-108-71-108-138 0-67 46-123 108-138-30-25-69-40-112-40-43 0-82 15-112 40 62 15 108 71 108 138z m42 0c0 60 49 109 109 109 60 0 109-49 109-109 0-60-49-109-109-109-60 0-109 49-109 109z m-76 0c0-60-49-109-109-109-60 0-109 49-109 109 0 60 49 109 109 109 60 0 109-49 109-109z"/>
    </symbol>

    <symbol id="icon-bug-facebook" viewBox="0 0 512 512">
      <path d="m461 197c-5-17-12-33-21-48 5-9 8-19 8-30 0-33-26-60-59-60-12 0-23 3-32 9-30-16-65-26-102-26-36 0-71 10-101 26-9-6-19-9-31-9-33 0-59 27-59 60 0 10 3 20 7 29-9 15-16 32-21 49-28 5-50 29-50 59 0 30 22 54 50 59 5 18 13 35 22 51-5 9-8 19-8 30 0 33 26 60 59 60 13 0 24-4 34-10 29 15 63 24 98 24 36 0 70-9 100-25 9 7 21 11 34 11 33 0 59-27 59-60 0-11-3-22-9-31 9-16 17-32 22-50 29-4 51-29 51-59 0-30-22-55-51-59z m-131-28l-42 0c-5 0-11 6-11 15l0 31 53 0 0 44-53 0 0 131-50 0 0-131-45 0 0-44 45 0 0-26c0-37 26-67 61-67l42 0z"/>
    </symbol>

    <symbol id="icon-bug-github" viewBox="0 0 512 512">
      <path d="m253 256c0 0 0 0 0 0 0 0 0 0-1 0-32 0-60-8-77 7-10 9-14 21-14 33 0 50 40 56 91 56l1 0c52 0 92-6 92-56 0-12-4-24-15-33-16-15-45-7-77-7z m-43 68c-10 0-18-11-18-24 0-14 8-25 18-25 9 0 17 11 17 25 0 13-8 24-17 24z m86 0c-10 0-18-11-18-24 0-14 8-25 18-25 10 0 18 11 18 25 0 13-8 24-18 24z m165-127c-5-17-12-33-21-48 5-9 8-19 8-30 0-33-26-60-59-60-12 0-23 3-32 9-30-16-65-26-102-26-36 0-71 10-101 26-9-6-19-9-31-9-33 0-59 27-59 60 0 10 3 20 7 29-9 15-16 32-21 49-28 5-50 29-50 59 0 30 22 54 50 59 5 18 13 35 22 51-5 9-8 19-8 30 0 33 26 60 59 60 13 0 24-4 34-10 29 15 63 24 98 24 36 0 70-9 100-25 9 7 21 11 34 11 33 0 59-27 59-60 0-11-3-22-9-31 9-16 17-32 22-50 29-4 51-29 51-59 0-30-22-55-51-59z m-185 167c-4 0-13 0-23 0-10 0-19 0-24 0-20 0-102-2-102-100 0-22 8-39 21-53-2-5-2-33 8-60 0 0 25 3 63 28 7-2 21-3 34-3 13 0 26 1 34 3 38-25 62-28 62-28 11 27 11 55 9 60 13 14 20 31 20 53 0 98-81 100-102 100z"/>
    </symbol>

    <symbol id="icon-bug-gplus" viewBox="0 0 512 512">
      <path d="m248 184c-7-24-19-32-36-32-2 0-4 1-6 1-7 2-13 9-17 18-3 10-3 20 0 31 5 20 19 35 34 35 2 0 4-1 5-1 16-5 26-29 20-52z m-26 112c-1 0-3 0-4 0-13 1-25 6-33 13-9 8-13 18-13 28 2 20 24 32 51 30 26-2 43-17 42-37-1-20-18-34-43-34z m239-99c-5-17-12-33-21-48 5-9 8-19 8-30 0-33-26-60-59-60-12 0-23 3-32 9-30-16-65-26-102-26-36 0-71 10-101 26-9-6-19-9-31-9-33 0-59 27-59 60 0 10 3 20 7 29-9 15-16 32-21 49-28 5-50 29-50 59 0 30 22 54 50 59 5 18 13 35 22 51-5 9-8 19-8 30 0 33 26 60 59 60 13 0 24-4 34-10 29 15 63 24 98 24 36 0 70-9 100-25 9 7 21 11 34 11 33 0 59-27 59-60 0-11-3-22-9-31 9-16 17-32 22-50 29-4 51-29 51-59 0-30-22-55-51-59z m-203 184c-18 9-36 10-44 10-1 0-2 0-2 0 0 0-1 0-1 0-12 0-68-3-68-54 0-51 61-54 80-54l1 0c-11-15-9-30-9-30-1 1-2 1-4 1-7 0-21-2-32-9-15-9-22-25-22-47 0-61 67-64 68-64l67 0 0 2c0 7-14 9-23 10-3 0-9 1-11 2 17 9 20 23 20 44 0 25-10 37-20 46-6 6-11 10-11 16 0 6 7 12 15 19 12 11 30 26 30 52 0 26-12 45-34 56z m146-119l-44 0 0 44-27 0 0-44-44 0 0-27 44 0 0-44 27 0 0 44 44 0z"/>
    </symbol>

    <symbol id="icon-bug-icon" viewBox="0 0 512 512">
      <path d="m256 0c-141 0-256 115-256 256 0 141 115 256 256 256 141 0 256-115 256-256 0-141-115-256-256-256z m0 492c-130 0-236-106-236-236 0-130 106-236 236-236 130 0 236 106 236 236 0 130-106 236-236 236z m32-188c5 0 7-5 5-10-2-5-7-9-11-11-6-2-10 0-9 6 0 7 8 14 15 15z m-27-77l-2 1c-9-5-42-13-71-17-2 0-4-3-4-5 20-72 65-112 100-126 2-1 4-2 6-3-66 13-109 70-130 139-1 4 3 6 7 6 58 1 161 44 143 121 0 2 0 3 0 5-21-37-56-68-100-90-6-3-12-6-19-9-47-20-102-31-158-29-1 5-2 10-3 15 39-3 78 2 113 12 12 4 12 9 1 11-19 4-34 6-51 12-5 1-10 0-12-1-18-10-34-15-52-19 0 3 0 6 0 9 0 4 0 9 1 13 10 4 20 9 30 14 9 5 18 11 27 18 48 34 92 79 125 161 2 4 3 9 3 14 12 2 25 3 37 3 2 0 4 0 5 0-2-1-4-3-5-6-33-82-76-138-122-174-6-4-6-9 0-12 16-6 33-11 50-15 9-3 19-1 29 5 32 19 58 44 72 75 6 14 10 29 11 43 0 2 0 3 0 5 0 27-9 53-28 76-1 1-3 2-4 3 22-1 43-5 62-11 13-33 12-69-2-105-1-1 4-7 3-9 7-18 9-38 7-59-2-10-15-32-47-55-1 0-2-2-2-3 13-99 113-148 113-148-49 10-108 67-133 135z"/>
    </symbol>

    <symbol id="icon-bug-icon-bees" viewBox="0 0 512 512">
      <path d="m76 203c0 10-8 19-18 19-10 0-18-9-18-19 0-10 8-18 18-18 10 0 18 8 18 18z m385-14c0 9-8 17-17 17-9 0-16-8-16-17 0-9 7-16 16-16 9 0 17 7 17 16z m-24 75c0 7-6 13-13 13-7 0-13-6-13-13 0-7 6-13 13-13 7 0 13 6 13 13z m-181-264c-141 0-256 115-256 256 0 141 115 256 256 256 141 0 256-115 256-256 0-141-115-256-256-256z m0 20c56 0 107 20 147 52l-294 0c40-32 91-52 147-52z m-88 329c-6-9-10-18-14-27 6 0 13 1 21 2 15 1 33 1 54 2 4 11 15 19 27 19 12 0 23-8 27-19 37-1 61-2 76-4-4 9-8 18-14 27-20 8-157 8-177 0z m161 23c-2 2-3 5-5 7-21 23-46 36-67 36-23 0-47-13-67-35-2-3-5-5-7-8 2 0 4 0 6 1 18 1 42 2 67 2 34 0 57-1 73-3z m-46-66c-4-11-15-19-27-19-12 0-23 8-27 19-37-1-71-3-82-6-2-10-4-19-5-29 7 2 16 3 27 4 23 3 54 4 87 4 63 0 96-4 114-8 0 10-2 19-5 29-11 3-44 5-82 6z m-142-56c0-2 0-5 1-7 0-6 1-12 2-18 8 2 17 3 30 4 21 2 51 3 82 3 63 0 95-3 112-7 1 5 2 11 2 18 0 2 1 5 1 7-29 12-201 12-230 0z m9-44c3-9 7-18 12-26 6 1 15 2 26 3 18 1 42 1 67 1 26 0 50 0 68-1 11-1 20-2 26-3 5 7 10 16 13 26-34 7-179 7-212 0z m25-45c19-20 45-34 80-34l1 0c24 0 55 10 79 35-35 3-126 3-160-1z m81 331c-130 0-236-106-236-236 0-61 24-117 62-159l156 0 0 11c-72 8-111 73-116 133-1 4-1 9-1 13l0 0c0 0 0 1 0 1 0 17 3 35 7 53 1 1 1 3 2 4 5 16 12 32 20 47 1 2 1 3 3 4 6 11 14 21 22 30 24 27 53 42 82 42 27 0 57-15 82-43 7-8 14-18 21-28 2-1 3-4 3-6 9-14 15-29 20-45 1-2 1-4 1-6 5-17 7-34 7-51 0-1 0-1 0-2l0 0c0-4 0-9-1-13-8-87-69-125-117-133l0-11 157 0c38 42 62 98 62 159 0 130-106 236-236 236z"/>
    </symbol>

    <symbol id="icon-bug-instagram" viewBox="0 0 512 512">
      <path d="m344 162l-18 0c-4 0-7 3-7 6l0 19c0 3 3 6 7 6l18 0c4 0 7-3 7-6l0-19c0-3-3-6-7-6z m117 35c-5-17-12-33-21-48 5-9 8-19 8-30 0-33-26-60-59-60-12 0-23 3-32 9-30-16-65-26-102-26-36 0-71 10-101 26-9-6-19-9-31-9-33 0-59 27-59 60 0 10 3 20 7 29-9 15-16 32-21 49-28 5-50 29-50 59 0 30 22 54 50 59 5 18 13 35 22 51-5 9-8 19-8 30 0 33 26 60 59 60 13 0 24-4 34-10 29 15 63 24 98 24 36 0 70-9 100-25 9 7 21 11 34 11 33 0 59-27 59-60 0-11-3-22-9-31 9-16 17-32 22-50 29-4 51-29 51-59 0-30-22-55-51-59z m-92 136c0 20-16 36-36 36l-154 0c-20 0-36-16-36-36l0-90 46 0c-1 4-1 9-1 13 0 38 30 68 68 68 38 0 68-30 68-68 0-4 0-9-1-13l46 0z m-155-77c0-23 19-42 42-42 23 0 42 19 42 42 0 23-19 42-42 42-23 0-42-19-42-42z m155-39l-57 0c-13-18-33-29-56-29-23 0-43 11-56 29l-57 0 0-38c0-20 16-36 36-36l154 0c20 0 36 16 36 36z"/>
    </symbol>

    <symbol id="icon-bug-linkedin" viewBox="0 0 512 512">
      <path d="m461 197c-5-17-12-33-21-48 5-9 8-19 8-30 0-33-26-60-59-60-12 0-23 3-32 9-30-16-65-26-102-26-36 0-71 10-101 26-9-6-19-9-31-9-33 0-59 27-59 60 0 10 3 20 7 29-9 15-16 32-21 49-28 5-50 29-50 59 0 30 22 54 50 59 5 18 13 35 22 51-5 9-8 19-8 30 0 33 26 60 59 60 13 0 24-4 34-10 29 15 63 24 98 24 36 0 70-9 100-25 9 7 21 11 34 11 33 0 59-27 59-60 0-11-3-22-9-31 10-16 17-32 22-50 29-4 51-29 51-59 0-30-22-55-51-59z m-257 168l-47 0 0-152 47 0z m-24-171c-15 0-24-10-24-23 0-14 10-24 25-24 15 0 24 10 25 24 0 13-10 23-26 23z m197 171l-47 0 0-84c0-20-7-33-24-33-13 0-21 9-25 17-1 4-1 8-1 12l0 88-48 0 0-104c0-19 0-34-1-48l41 0 2 21 1 0c7-10 22-25 47-25 32 0 55 21 55 66l0 90z"/>
    </symbol>

    <symbol id="icon-bug-pinterest" viewBox="0 0 512 512">
      <path d="m461 197c-5-17-12-33-21-48 5-9 8-19 8-30 0-33-26-60-59-60-12 0-23 3-32 9-30-16-65-26-102-26-36 0-71 10-101 26-9-6-19-9-31-9-33 0-59 27-59 60 0 10 3 20 7 29-9 15-16 32-21 49-28 5-50 29-50 59 0 30 22 54 50 59 5 18 13 35 22 51-5 9-8 19-8 30 0 33 26 60 59 60 13 0 24-4 34-10 29 15 63 24 98 24 36 0 70-9 100-25 9 7 21 11 34 11 33 0 59-27 59-60 0-11-3-22-9-31 9-16 17-32 22-50 29-4 51-29 51-59 0-30-22-55-51-59z m-187 130c-17-1-24-9-37-17-7 37-15 73-41 91-8-56 12-98 21-143-16-26 2-78 34-65 40 15-35 96 16 106 52 11 74-91 41-124-47-47-137-1-126 68 3 16 20 21 7 44-30-6-39-30-38-62 2-51 47-88 92-93 56-6 109 21 117 74 8 61-26 126-86 121z"/>
    </symbol>

    <symbol id="icon-bug-twitter" viewBox="0 0 512 512">
      <path d="m461 197c-5-17-12-33-21-48 5-9 8-19 8-30 0-33-26-60-59-60-12 0-23 3-32 9-30-16-65-26-102-26-36 0-71 10-101 26-9-6-19-9-31-9-33 0-59 27-59 60 0 10 3 20 7 29-9 15-16 32-21 49-28 5-50 29-50 59 0 30 22 54 50 59 5 18 13 35 22 51-5 9-8 19-8 30 0 33 26 60 59 60 13 0 24-4 34-10 29 15 63 24 98 24 36 0 70-9 100-25 9 7 21 11 34 11 33 0 59-27 59-60 0-11-3-22-9-31 9-16 17-32 22-50 29-4 51-29 51-59 0-30-22-55-51-59z m-110 12c0 2 0 4 0 7 0 64-49 139-139 139-28 0-54-8-76-22 4 1 8 1 12 1 23 0 44-8 61-21-21-1-40-15-46-34 3 0 6 1 9 1 5 0 9-1 13-2-22-5-39-24-39-48 0 0 0-1 0-1 7 4 14 6 22 6-13-9-22-24-22-41 0-9 3-17 7-24 24 29 60 49 101 51-1-4-1-7-1-11 0-27 22-49 49-49 14 0 27 6 36 15 11-2 22-6 31-12-4 12-11 21-21 27 9-1 19-3 28-7-7 10-15 18-25 25z"/>
    </symbol>

    <symbol id="icon-bug-vimeo" viewBox="0 0 512 512">
      <path d="m461 197c-5-17-12-33-21-48 5-9 8-19 8-30 0-33-26-60-59-60-12 0-23 3-32 9-30-16-65-26-102-26-36 0-71 10-101 26-9-6-19-9-31-9-33 0-59 27-59 60 0 10 3 20 7 29-9 15-16 32-21 49-28 5-50 29-50 59 0 30 22 54 50 59 5 18 13 35 22 51-5 9-8 19-8 30 0 33 26 60 59 60 13 0 24-4 34-10 29 15 63 24 98 24 36 0 70-9 100-25 9 7 21 11 34 11 33 0 59-27 59-60 0-11-3-22-9-31 9-16 17-32 22-50 29-4 51-29 51-59 0-30-22-55-51-59z m-86 11c-14 81-92 149-116 164-23 16-45-6-53-23-8-18-35-120-42-128-7-9-28 8-28 8l-10-13c0 0 42-52 75-59 34-6 34 54 42 88 8 32 14 51 21 51 7 0 20-18 34-46 15-28 0-53-29-35 12-70 120-87 106-7z"/>
    </symbol>

    <symbol id="icon-elbugfarm-lcon" viewBox="0 0 512 512">
      <path d="m427 217c1 4 0 8-5 8-6 0-12-7-13-13 0-4 4-6 8-5 4 2 8 6 10 10m85-172c-42 9-92 57-114 115l-1 1c-8-4-36-12-60-15-3 0-4-2-3-4 16-61 55-95 85-107 1-1 3-2 4-3-56 11-93 60-110 119-1 3 2 5 6 5 49 1 137 37 122 103-1 1-1 2-1 3-18-31-48-57-85-76-5-3-10-5-15-8-44-18-95-28-147-24-24 2-47 7-68 13-7 3-13 5-20 8l-15 7c-1 0-2 1-2 1-60 31-96 83-87 142 15 99 146 171 284 152 50-7 91-25 120-49l10-8c41-39 55-90 33-142 0-1 4-6 3-7 6-16 8-33 6-51-1-9-12-27-40-46-1-1-2-2-2-3 12-84 97-126 97-126m-324 123c38-5 76-1 110 9 10 3 11 7 1 9-16 4-28 6-43 10-4 1-9 0-10 0-20-11-36-16-56-19-6-1-14-2-14-2-16-3 8-6 12-7m158 236c-16 10-40 19-62 22-52 7-122-8-168-39-12-8-20-31-13-42 25-38 59-70 85-90 22-15 20-19-5-6-32 19-67 43-91 61-14 11-25 21-38 13-7-5-8-9-9-14-11-48 18-92 67-118 4-2 7-3 11-4 33-3 70 4 105 23 8 5 15 9 23 15 40 29 78 68 106 137 6 15 1 34-11 42m55-30c-3 4-8 3-10-3-28-69-65-117-104-147-5-4-5-8 0-10 14-6 28-10 42-14 8-1 17 0 25 5 27 16 49 38 61 63 6 13 9 25 10 37 0 2 0 3 0 4 0 23-8 46-24 65"/>
    </symbol>

    <symbol id="icon-hive" viewBox="0 0 512 512">
      <path d="m484 197c0 7-6 13-13 13-7 0-13-6-13-13 0-7 6-13 13-13 7 0 13 6 13 13z m-444-80c0 12-9 21-20 21-11 0-20-9-20-21 0-11 9-20 20-20 11 0 20 9 20 20z m245-14l0-65 45 0 0-27-141 0 0 27 51 0 0 66c-44 5-82 26-107 61-35 48-43 116-22 183 6 20 16 41 27 60 0 1 0 1 1 2 32 51 79 92 126 92 67 0 131-78 155-153 20-67 12-135-25-183-26-37-64-58-110-63z m-22 25l1 0c41 0 77 13 102 41-24 3-60 6-101 6-42 0-78-3-102-6 24-28 59-41 100-41z m3 348c-29 0-62-23-90-58 23 3 54 5 89 5 35 0 67-2 90-5-27 35-60 58-89 58z m101-74c-23 3-60 6-102 6-41 0-77-3-100-6-10-14-17-29-24-45 21 3 52 6 88 6 4 16 18 27 34 27 17 0 30-12 34-27 38 0 70-3 91-6-5 16-13 31-21 45z m29-62c0 1-1 1-1 2-21 4-55 7-96 8-3-17-17-29-35-29-17 0-32 13-35 29-40-1-73-4-94-8 0-1-1-1-1-2-4-15-8-30-9-44 22 5 77 10 140 10 63 0 116-4 139-10-1 14-4 29-8 44z m9-56c-2-1-4-1-6-2-25 6-76 8-134 8-58 0-109-3-133-8-3 1-6 1-8 2-1-16 0-32 4-47 24 6 76 9 137 9 60 0 112-3 136-9 3 16 5 31 4 47z m-140-51c-58 0-109-4-133-9 4-15 12-31 21-43 22 4 64 8 112 8 48 0 89-3 111-8 9 12 16 27 22 43-26 5-75 9-133 9z m247-130c0 9-8 17-17 17-10 0-18-8-18-17 0-10 8-18 18-18 9 0 17 8 17 18z"/>
    </symbol>

    <symbol id="icon-hole" viewBox="0 0 512 512">
      <path d="m1 266c0-10 0-19 0-28 0-1 0-2 0-3 1-9 2-17 3-25 1-3 1-7 3-10 5-8 11-16 17-24 4-6 9-12 10-19 0-5 3-8 6-12 6-5 12-11 16-18 8-12 15-24 22-36 4-6 9-11 16-13 3-1 7-3 10-5 7-3 9-8 8-15 0-6 1-10 7-12 14-7 27-13 40-19 1-1 3-1 4-1 6 1 13 2 19 0 26-8 53-13 80-15 24-2 47-1 71 4 7 1 15 3 21 9 3 4 3 3 8 0 2-2 4-4 8-2 19 9 35 21 49 37 18 22 36 43 54 65 5 5 8 10 12 16 2 2 4 3 5 6 10 23 17 48 21 73 0 6 1 12 2 19 0 9 0 18 0 27-1 3-1 6-3 9-4 10-4 21-6 32-1 6-1 13-3 20-6 20-14 40-26 58 0 1-2 2-3 4-4 4-8 7-11 11-1 1-2 3-1 4 1 2 0 4-1 5-22 28-49 51-81 68-2 2-5 3-8 4-6 2-12 3-18 4-9 2-17 5-24 11-2 2-3 1-6 0-2-2-5-4-8-4-3 1-3 5-3 7 0 1 0 2-1 2 0 1 0 2-1 2-5 0-9 2-14 1-10-1-19-3-29-5-18-3-36-5-54-9-2 0-3-1-5-2-3-3-6-6-9-9-1-1-2-1-3-2-4-1-9-2-13-3-12-3-24-4-36-8-7-3-15-6-23-6-6 0-9-4-11-10-2-8-6-16-12-23-7-7-9-7-13 2-1 3-2 6-3 9-8-4-10-7-14-13-7-13-13-25-20-37-1-2-3-3-5-4-1-2-3-3-4-5-6-12-11-24-12-37 0-3 1-7-3-9-3-1-6-2-9-4 0 0-2 0-3 0-1-1-2-1-2-3-5-13-8-27-10-42 0-6-1-11-1-17z"/>
    </symbol>

    <symbol id="icon-icon-email" viewBox="0 0 512 512">
      <path d="m482 67l-444 0c-16 0-30 14-30 30l0 307c0 16 14 30 32 30l442 0c17 0 33-14 33-30l0-307c-3-16-16-30-33-30z m-64 62l-159 122-157-122z m32 246l-380 0 0-216 189 154 188-154 0 216z"/>
    </symbol>

    <symbol id="icon-icon-phone" viewBox="0 0 512 512">
      <path d="m419 0l-326 0c-18 0-33 15-33 33l0 449c0 15 15 30 33 30l326 0c18 0 33-15 33-33l0-446c0-18-15-33-33-33z m-130 449l-66 0 0-33 66 0z m97-97l0 34-260 0 0-323 263 0 0 289z"/>
    </symbol>

    <symbol id="icon-icon-place" viewBox="0 0 512 512">
      <path d="m256 0c-108 0-196 85-196 193 0 106 165 319 196 319 31 0 196-213 196-319 0-108-88-193-196-193z m0 319c-71 0-131-57-131-128 0-72 57-128 131-128 71 0 131 56 131 128 0 71-60 128-131 128z"/>
    </symbol>

    <symbol id="icon-logo-1" viewBox="0 0 512 512">
      <path d="m118 136l13-6c-4 2-8 4-13 6z m-2 2c0 0 0 0 0 0 1-1 2-1 3-2z m292 23c1 4 0 7-4 7-5 0-11-6-11-11-1-4 3-6 6-4 4 1 7 5 9 8z m74-150c-36 8-80 50-99 101l-1 1c-7-4-31-11-53-13-1-1-3-2-2-4 14-54 48-83 74-93 1-1 3-2 4-3-49 10-81 52-96 103-1 3 2 5 5 5 43 1 120 33 106 90 0 1 0 2 0 3-16-28-42-51-74-67-5-2-10-4-14-6-38-17-83-25-128-21-21 1-41 5-59 11-6 2-12 4-18 6l-13 6c-1 1-1 1-2 2-52 27-83 72-75 124 13 86 127 149 248 132 43-6 78-21 104-42l8-8c36-33 48-78 30-123-1-1 3-6 2-7 5-13 7-28 5-44-1-8-11-24-35-40-1-1-1-2-1-3 10-73 84-110 84-110z m-283 108c33-5 67-2 96 7 10 3 10 7 1 9-14 2-24 4-38 8-3 1-7 0-8 0-18-9-32-14-49-17-5-1-12-2-12-2-14-2 7-5 10-5z m138 205c-14 9-35 17-54 20-45 6-106-7-147-34-9-7-17-28-11-37 22-34 52-61 74-79 19-13 18-16-3-5-29 17-60 38-81 54-12 9-22 17-32 11-7-4-8-8-9-12-9-42 16-81 59-104 3-1 7-2 10-3 29-2 61 4 91 21 7 3 14 7 21 12 35 26 67 59 92 120 6 13 1 30-10 36z m48-26c-3 4-7 3-9-2-24-61-56-102-90-129-5-3-4-7 0-9 12-4 24-8 37-11 7-2 15 0 21 4 24 14 43 33 54 55 5 11 8 22 8 33 0 1 0 2 0 3 1 20-7 39-21 56z m-333 64l0 7-12 0 0 13 10 0-1 7-9 0 0 16 12 0 0 7-22 0 0-50 22 0z m14 0l0 43 10 0 0 7-20 0 0-50z m-36 64l20 0c6 0 11 1 15 2 3 1 6 2 7 4 2 2 3 4 4 7 0 2 0 5 0 8 0 5-1 9-3 12-2 4-5 6-10 7 6 1 10 3 13 7 2 3 3 8 3 13 0 3 0 7 0 10 0 3-1 6-3 8-1 3-4 5-7 6-3 1-8 2-14 2l-25 0z m16 36l4 0c2 0 4 0 6-1 1 0 2-1 3-2 0-1 1-3 1-4 0-2 0-4 0-6 0-2 0-4 0-5 0-2-1-3-1-4-1-1-2-1-3-2-1 0-3 0-5 0l-5 0z m0 39l5 0c3 0 5 0 7-1 1 0 3-1 3-2 1-2 2-3 2-5 0-2 0-4 0-6 0-3 0-5 0-7 0-1-1-3-2-4 0-1-1-2-3-2-1-1-3-1-6-1l-7 0 0 28z m57-75l0 59c0 3 0 6 0 8 0 2 1 4 1 5 0 1 1 2 2 3 1 0 2 1 4 1 1 0 2-1 3-1 1-1 2-2 2-3 1-1 1-3 1-5 0-2 0-5 0-8l0-59 17 0 0 61c0 4 0 8-1 11 0 4-1 6-3 9-1 2-4 4-7 5-3 1-7 2-13 2-5 0-9-1-12-2-3-1-5-3-7-5-2-3-3-5-3-9-1-3-1-7-1-11l0-61z m88 41l0 45-12 0-1-5c-1 2-3 4-5 5-2 1-6 1-10 1-6 0-10-1-13-3-3-2-5-5-6-9-2-4-2-8-3-14 0-5 0-12 0-18 0-7 0-13 1-18 0-6 1-10 3-14 1-4 4-7 7-9 4-2 9-3 15-3 6 0 10 1 14 1 3 1 5 3 7 5 1 2 2 5 2 8 1 4 1 8 1 13l-13 3c-1-4-1-6-1-9 0-2-1-4-1-5-1-2-2-3-3-4-1 0-3-1-5-1-2 0-4 1-5 2-2 2-3 4-3 6-1 3-2 6-2 10 0 5 0 9 0 15 0 5 0 9 0 13 1 4 1 8 2 11 0 2 1 5 2 6 1 2 3 3 5 3 5 0 8-3 9-7l0-17-9 0 2-11z m77-41l0 12-23 0 0 24 18 0-1 12-17 0 0 38-17 0 0-86z m24 67l-13 0-3 19-16 0 17-86 18 0 18 86-19 0z m-12-12l10 0-5-31z m66 31l-7-38-3 0 0 38-17 0 0-86 20 0c6 0 10 1 13 2 4 0 6 2 8 4 2 1 3 4 3 6 1 3 1 6 1 10 0 3 0 6 0 9 0 2-1 4-1 7-1 2-2 3-3 5-2 1-3 2-5 3l10 40z m-5-50c2 0 3 0 4 0 1-1 2-2 2-3 1-1 1-2 1-4 0-2 1-4 1-6 0-3 0-4-1-6 0-2 0-3-1-4 0-1-1-1-2-2-1 0-3 0-5 0l-4 0 0 25z m42-6l0 56-13 0 0-86 20 0 13 63 12-63 19 0 0 86-14 0 0-56-10 56-16 0z"/>
    </symbol>

    <symbol id="icon-mouse" viewBox="0 0 512 512">
      <path d="m234 156c2 0 49 0 52 0 3 0 4-3 3-5-2-2-25-42-26-45-1-2-5-2-6 0-2 4-25 44-26 45-2 3 0 5 3 5z m22-154c-75 0-135 60-135 135l0 238c0 75 60 135 135 135 75 0 135-60 135-135l0-238c0-75-60-135-135-135z m116 360c0 66-34 119-110 119-90 0-120-53-120-119l0-212c0-66 36-119 110-119 77 0 120 53 120 119z m-86-190c-2 0-49 0-52 0-3 0-4 2-3 4 2 3 25 44 26 45 1 2 5 2 6 0 2-3 25-43 26-45 1-2-1-4-3-4z"/>
    </symbol>

</svg>
